<?xml version="1.0" encoding="UTF-8"?>
<svg id="_레이어_2" data-name="레이어 2" xmlns="http://www.w3.org/2000/svg" viewBox="0 0 69.95 27.21">
  <defs>
    <style>
      .cls-1 {
        fill: #fbb03b;
        stroke-width: 0px;
      }
    </style>
  </defs>
  <g id="_레이어_1-2" data-name="레이어 1">
    <g>
      <path class="cls-1" d="m0,24.08C.51,16.52.58,10.51.58,2.84.58,1.58,1.84.86,2.99.76c1.73-.14,3.78-.22,5.62-.22,5.54,0,8.46,4,8.46,7.85,0,1.76-.65,3.13-2.2,4.43,2.38,1.44,3.6,4.14,3.6,6.59,0,3.96-2.99,7.45-9.5,7.45-2.52,0-4.43-.11-6.05-.29-1.55-.18-3.02-.86-2.92-2.48Zm8.64-13.28c2.05,0,3.02-1.12,3.02-2.63,0-1.66-1.15-3.38-3.02-3.38-.43,0-1.4.04-1.91.14-.72.14-1.12.65-1.08,1.4l.25,4.54,2.74-.07Zm-2.59,4.39v3.31c0,.79,0,1.37-.04,2.05-.07,1.15.9,1.66,1.76,1.76.5.07,1.01.07,1.51.04,2.56-.25,3.78-2.02,3.78-3.78,0-1.66-1.19-3.46-3.74-3.42l-3.28.04Z"/>
      <path class="cls-1" d="m36.87,27.07c-10.44,0-15.23-4.28-15.23-11.63C21.64,7.31,26.75.61,37.8.61c1.22,0,1.8,1.33,1.8,2.59,0,1.19-.5,2.3-1.44,2.3-8.78,0-10.47,5-10.47,10.08,0,3.89,3.17,6.51,8.67,6.37.07-1.22.07-2.41.07-3.64,0-.76-.29-1.3-1.01-1.33-.5-.04-1.3-.04-1.8-.04-1.01,0-1.55-1.08-1.55-2.16s.47-2.09,1.48-2.16c1.4-.14,2.84-.22,4.21-.22.47,0,.94,0,1.4.04,1.15.04,2.2.83,2.27,2.09.18,2.81.29,5.65.29,8.5,0,.76-.04,1.51-.04,2.27.07,1.66-3.96,1.76-4.82,1.76Z"/>
      <path class="cls-1" d="m58.22,24.84c-1.19,0-2.38-.47-2.59-1.37-1.12-4.5-2.34-8.5-3.85-12.74.04,1.44.07,2.74.07,4.03,0,3.49-.18,6.66-.43,10.65-.07.83-1.22,1.19-2.45,1.19-1.58,0-3.28-.58-3.2-1.55.5-6.37.83-12.06.83-18.18,0-1.62-.04-3.28-.07-4.97-.04-1.33,1.44-1.91,2.92-1.91,1.3,0,2.63.47,3.02,1.29,2.34,5,4.14,10.01,5.65,15.01,1.55-5.15,3.17-10.15,5.29-14.94.36-.83,1.66-1.3,2.92-1.3,1.44,0,2.92.58,3.02,1.91.43,4.5.61,8.68.61,12.85,0,3.63-.14,7.31-.4,11.19-.04.83-1.22,1.19-2.48,1.19-1.62,0-3.38-.58-3.31-1.55.5-5.83.72-10.29.79-16.2-1.55,4.86-2.74,9.21-3.89,14.07-.22.86-1.33,1.29-2.45,1.29Z"/>
    </g>
  </g>
</svg>