<svg xmlns="http://www.w3.org/2000/svg" viewBox="0 0 559.41 215.48"><defs><style>.cls-1{fill:#ff7bac;}.cls-2{fill:#feda42;}.cls-3{fill:blue;}.cls-4{fill:#3fa9f5;}.cls-5{fill:#686767;}.cls-6{fill:none;stroke:#6db92c;stroke-miterlimit:10;stroke-width:2.83px;}</style></defs><g id="레이어_2" data-name="레이어 2"><g id="레이어_1-2" data-name="레이어 1"><path class="cls-1" d="M236.39,116.06v-2q0-21.31,0-42.63a12.65,12.65,0,0,1,.55-3.67,4.87,4.87,0,0,1,4.89-3.65c6,.07,12,.36,18.05.69,3.28.18,5.73,4.2,4.9,7.89a35.35,35.35,0,0,0-.85,7.54c-.07,21.75,0,43.5,0,65.25,0,4.06-1.25,5.86-5,7.07.83.21,1.47.36,2.1.53a5,5,0,0,1,3.92,4.88,128.38,128.38,0,0,1-.06,14.55c-.29,3.62-2.58,5.17-6.31,5.23-1.3,0-2.61,0-3.92,0H176.48c-5.31,0-7.45-2.15-7.46-7.48,0-10-.23-20.07.15-30.09a7,7,0,0,0-2.89-6.4c-2.45-2-4.82-4.14-7.33-6.07-3.83-2.95-3.58-8,.68-10.22a49.2,49.2,0,0,0,11.58-8.12c7.15-7,10.72-15.77,12-25.54.46-3.64.57-7.33.76-11s1.72-5.94,5.24-6c5.89-.2,11.84-.78,17.67.69,3.3.82,5.85,4.23,4.85,7.32-3.5,10.79,1.33,19.32,7.22,27.51a35.92,35.92,0,0,0,13.77,11.23A32.16,32.16,0,0,1,236.39,116.06Zm-38.77-10.13c4.7,10.86,12.52,18.64,20.87,24.3l12.06-11.82c.59.59.53.46.42.41-10.78-5-18.19-13.31-22.9-24-2.77-6.33-4.63-12.88-1.85-19.83.6-1.5,0-2.44-2-2.51-4.83-.16-9.67-.05-14.63-.05,0,.59-.08,1.2-.14,1.81-.45,4.57-.62,9.2-1.42,13.71-2.54,14.17-9.82,25.2-22.37,32.54-1.31.77-2.65,1.49-3.85,2.17l12.58,11C184.66,126.79,193.48,118.47,197.62,105.93Zm-22.86,32.58v33.58h84.63V158.28H191c0-4.15-.05-8.12,0-12.09a14.17,14.17,0,0,1,.57-3.65c.88-3.11.51-3.89-2.7-4C184.25,138.4,179.58,138.51,174.76,138.51Zm83.6,8.51v-2c0-19.13-.07-38.26.05-57.4,0-5.3-.92-10.71,1-15.91A1.2,1.2,0,0,0,258.32,70c-1.29-.13-2.59-.32-3.89-.33-4.09,0-8.19,0-12.36,0V147Zm-60-28.49L185.71,132.7c1.72.24,3.74.61,5.77.79,4.84.45,6.7,5.11,5.76,9.25-.72,3.15-.67,6.48-1,9.83h45.06c-3.66-1.3-4.91-3.1-4.92-6.86,0-7.17,0-14.34,0-21.5,0-.65-.06-1.3-.09-2.08-1.09,1-2.06,1.72-2.92,2.59-2.94,2.94-6,5.82-8.71,8.94-2.4,2.72-5.54,3.46-8.6,1.49A62.33,62.33,0,0,1,201.9,122.8C200.63,121.29,199.37,119.75,198.36,118.53ZM300.73,98.1v34.59a83.58,83.58,0,0,0,8.53,0c10.27-1.07,20.53-2.3,30.79-3.52,3.81-.45,6.4,1.49,6.95,5.5.48,3.51.83,7,1.58,10.58v-2.36q0-35.52,0-71a14.35,14.35,0,0,1,.25-2.77c.61-3,2-4.83,5-4.86a182.59,182.59,0,0,1,18.42.69c3.59.33,5.42,4,4.76,7.56a44.35,44.35,0,0,0-.9,8.1q-.11,46.1,0,92.17a12.7,12.7,0,0,1-.07,2.05c-.64,3.88-2.67,5.62-6.62,5.64-4.61,0-9.22,0-13.83,0s-7-2.28-7-7c0-7.16,0-14.33,0-21.5v-2c-1.06,2.63-3.14,3.6-5.73,4a306.75,306.75,0,0,1-49.59,4.87c-4.3,0-8.6,0-12.9,0-5,0-7.09-2.06-7.09-7q0-35.9,0-71.79c0-4.6,2.3-6.93,6.88-6.93q26.46,0,52.9,0c4.52,0,6.83,2.3,6.85,6.75,0,3.93,0,7.85,0,11.78,0,4.4-2.13,6.52-6.55,6.53q-15.23,0-30.47,0Zm-5.44-5.63H334.2V78.78H278.72v2.73q0,18.58,0,37.18,0,16.55,0,33.08c0,.9.05,1.59,1.25,1.56,10-.27,20.06-.27,30.06-.85,7.56-.43,15.08-1.55,22.6-2.46,3.43-.42,6.83-1.09,10.42-1.67-.53-4.73-1-9.25-1.54-13.87-15.46,2.56-30.69,4.22-46.21,4ZM354.23,69.6V174.71h16.31v-1.44q0-45.78,0-91.56c0-3.28-.3-6.59,1-9.76.5-1.2-.1-2.07-1.45-2.19-1.17-.11-2.36-.15-3.54-.15C362.5,69.59,358.41,69.6,354.23,69.6Z"/><path class="cls-2" d="M92.24,36.1a27.67,27.67,0,0,1,.46,3.41c.06,3.33-1.54,5.32-4.83,5.77-1.86.25-2.85.91-3.15,2.91a23.24,23.24,0,0,1-1.65,5.13c-.87,2.2-3.52,3.31-6.31,2.79-3.24-.6-4.37-1.84-4.66-4.65a13,13,0,0,0-1.17-4.63c-.4-.76-1.75-1.24-2.75-1.45a5.3,5.3,0,0,1-4.59-4.92,5.57,5.57,0,0,1,3.08-6.19,12.78,12.78,0,0,1,1.2-.52c1-.36,2.62-.41,3-1.11a11.59,11.59,0,0,0,1.21-4.81c.14-2.5,1-4.31,3.42-5.17.28-1.66-.48-2.28-2-2.68-3.88-1-5.17-2.9-5.09-6.85a4.26,4.26,0,0,1,3.73-4.27c2.4-.38,3.4-1.49,3.74-3.89a5.91,5.91,0,0,1,9.45-3.72,7.42,7.42,0,0,1,2.29,4.47c.26,2,1.09,2.58,2.82,3,3.41.74,4.09,1.8,4.17,5.31.09,3.94-1.15,5.16-5.38,6.29a12.94,12.94,0,0,0-1.44.61l.26.73c1.51-.41,3.06-.72,4.52-1.27a3.9,3.9,0,0,0,2.51-3.2c.65-3.72,1.59-7.39,2.06-11.12.63-5,4.62-7.38,9.28-5.21a4.09,4.09,0,0,1,2.36,3.54c.28,2.34.38,4.71.82,7a26.21,26.21,0,0,0,2,6.89A6.78,6.78,0,0,0,115.24,21a63.25,63.25,0,0,0,6.54,1.42c3.25.78,4.6,2.31,4.52,5.64-.1,4.41-1.48,6.09-5.23,6.19a26.83,26.83,0,0,0-5.82,1.12c-2.8.71-4.27,2.71-4.66,5.54-.56,4-1.28,7.92-2,11.87-.38,2.1-2,2.83-3.85,3.25-4,.89-6.76-.85-7.48-4.83-.18-1-.26-2-.44-2.94-.53-2.92-1.1-5.83-1.64-8.74A3.83,3.83,0,0,0,92.24,36.1Zm12,15.9c.61-3.89,1.14-7.55,1.76-11.2.86-5,3.16-8.72,8.59-9.75,2.54-.48,5-1.17,7.51-1.75V27.17c-3.26-.84-6.41-1.55-9.49-2.48a7.14,7.14,0,0,1-5.1-4.54,55.71,55.71,0,0,1-2-6.93c-.56-2.9-.83-5.86-1.24-8.88H102c-.62,3.75-1.25,7.46-1.84,11.18-.87,5.4-3.63,9-9.29,10a56.25,56.25,0,0,0-6.13,1.45,1.74,1.74,0,0,0-1.07,1.26,1.91,1.91,0,0,0,1.14,1.31c1.54.45,3.15.65,4.72,1,4,.91,8,2,9.47,6.51a61.78,61.78,0,0,1,1.84,7.74c.47,2.4.75,4.84,1.1,7.23Zm-27.48-.1c1.65.46,2.77.26,2.77-1.75,0-.35.3-.7.33-1,.26-4.65,2.41-7.57,7.27-8.15a1.79,1.79,0,0,0,1.07-1.38,2.15,2.15,0,0,0-1-1.48A8.2,8.2,0,0,0,85,37.51a5.47,5.47,0,0,1-4.48-4.44A50.06,50.06,0,0,0,79.36,28a1.86,1.86,0,0,0-1.42-1c-.44,0-1,.56-1.33,1a3.36,3.36,0,0,0-.34,1.44c-.54,4.45-2,8.15-7.27,8.55a1.17,1.17,0,0,0-.83.36,2.88,2.88,0,0,0-.46,1.47,1.52,1.52,0,0,0,.75,1.05,7.15,7.15,0,0,0,1.81.43c2.65.51,4.6,1.83,5.22,4.63C75.92,47.87,76.32,49.81,76.76,51.9ZM80.4,4.32c-.08.57-.15,1-.19,1.41-.41,3.68-1.64,6.61-6,7-.49.05-.91.9-1.35,1.38.48.44.93,1.18,1.47,1.26,3.58.49,5.35,2.54,5.61,6a3,3,0,0,0,.29,1.44A2.47,2.47,0,0,0,81.65,24c1.41.22,1.36-1,1.46-1.87.41-3.54,1.79-6.18,5.74-6.63.13,0,.3,0,.36-.08.34-.38.92-.79.9-1.16a2.23,2.23,0,0,0-.88-1.37,3.28,3.28,0,0,0-1.4-.41,4.85,4.85,0,0,1-4.26-4.29c-.2-1.27-.59-2.51-.91-3.83Z"/><path class="cls-3" d="M400.21,18.66c.31,5.93-3.87,11.22-8.77,13.11A15.63,15.63,0,0,0,385.63,36c-5,5.38-9.69,11-14.51,16.48a72,72,0,0,1-5.85,6.46,5.21,5.21,0,0,1-3.94,1,11.05,11.05,0,0,1-8.9-7.6,4.33,4.33,0,0,1,.44-3.3c3.13-4.7,6.45-9.27,9.7-13.89,3-4.27,6.07-8.5,9-12.85a8.9,8.9,0,0,0,1.25-3.79c.64-5.56,4.69-10.84,9.71-12.42A13.46,13.46,0,0,1,400.21,18.66Zm-25.95,7.55L356.21,51.63c1.57,1.24,3.06,2.4,4.53,3.58,1,.78,1.62.62,2.46-.37,4-4.63,8-9.16,12.06-13.74,2.49-2.84,4.95-5.72,7.44-8.59Zm5.44-13a57.15,57.15,0,0,0,14.6,10.57,9,9,0,0,0-14.6-10.57ZM378.5,15c-2.37,5.4-2.37,7.6,2.16,10.74.67.46,1.38.85,2,1.34,4,3,7.5,1.29,10.24-1.63Z"/><path class="cls-4" d="M270.4,52.09c-8.72,7-24.26,5.82-30.36-4.66,0,3.37,0,6.25,0,9.13,0,2.44-.58,4.72-2.75,6.22a4.38,4.38,0,0,1-2,.91c-3.22.18-6.67,1-9.61.12a47.54,47.54,0,0,0-10.81-1.75c-3.82-.24-6-3-6.2-6.93,0-.55,0-1.1-.07-1.56l-16.26.69a10.38,10.38,0,0,1-2.43,0c-2-.43-3.2.3-4.66,1.76a8.08,8.08,0,0,1-5.2,2c-15.89.14-31.78.1-47.67.07-4.21,0-6.84-2.34-7.24-6.48a30.1,30.1,0,0,1,0-6.15c.42-4,2.91-6.2,6.94-6.41l2-.09c-4.28-2.71-3.59-6.67-3.62-10.37,0-5.42-.07-10.85,0-16.27A11,11,0,0,1,131.46,8a5.35,5.35,0,0,1,4.88-3.27,60.73,60.73,0,0,1,10,.51c3.43.54,5.3,4.05,4.79,7.49-.37,2.43-.33,4.92-.48,7.61H153c7.22,0,14.45,0,21.68,0,3.33,0,6,1,7.56,4.19l1.22-2c-2.08-4.14-1.88-8.51-.77-12.71.76-2.87,3.52-4,6.35-4,6.66,0,13.32.14,20,.19a1.71,1.71,0,0,0,1.19-.57,6.06,6.06,0,0,1,5.2-2.52c5.24.42,10.33-1.17,15.53-.89a25.26,25.26,0,0,1,4.25.48c4,.89,6,4.26,5.13,8.31a29.36,29.36,0,0,0-.35,3.09l3.15-.42c.1-1.38.09-2.74.31-4.07.57-3.38,2.43-5.08,5.83-5.13,5.36-.09,10.72-.08,16.08,0a5.56,5.56,0,0,1,5.23,3.09c1.24-3.79,3.94-4.84,7.35-4.64a59.91,59.91,0,0,1,7.6.61c3.32.63,4.81,3.74,4.43,7.07-.52,4.54-.53,9.15-.76,13.74l4.73,1.12V22.35c0-4,0-8,0-12,0-4.4,2.31-7.2,6.65-7.46a39.65,39.65,0,0,1,8.9.55,6.28,6.28,0,0,1,5,7.5c-.11.66-.19,1.33-.31,2.22h2.17c7.35,0,14.71,0,22.06,0a11.35,11.35,0,0,1,4.5.95c2.28,1.06,3.22,3.18,3.37,5.64a12.89,12.89,0,0,1,0,2.24,4.07,4.07,0,0,0,2,4.44,6,6,0,0,1,2.23,3.84,29.6,29.6,0,0,1,.07,7.81c-.46,3.6-3.08,5.54-7,5.68a13.55,13.55,0,0,0-2.66.21c.38.14.78.25,1.16.41,1.92.83,3.55,2.07,3.77,4.25a42.46,42.46,0,0,1,.24,8.35c-.36,3.64-2.95,5.8-6.83,5.82-12.83.08-25.67.1-38.51,0-4.21,0-6.83-3-6.88-7.26-.05-4,0-8,0-11.94L289.39,42c0,5,0,9.46,0,13.93a19.44,19.44,0,0,1-.33,3,4.86,4.86,0,0,1-4.58,4.44,41.74,41.74,0,0,1-8.36.12c-4-.46-5.59-2.56-5.69-6.73C270.37,55.25,270.4,53.84,270.4,52.09ZM225.47,36.78V39c0,5.92,0,11.84,0,17.76,0,1.45.52,2.06,2,2s3,0,4.49,0c2.47,0,2.55-.07,2.55-2.5q0-21.4,0-42.81a15.36,15.36,0,0,1,.41-3.3c.4-1.77,0-2.41-1.85-2.49s-3.62,0-5.42-.1c-1.6-.1-2.19.43-2.17,2.11.09,5.73,0,11.47,0,17.2v2.1l-2.25-.11c0-5.48,0-10.78,0-16.07a5.4,5.4,0,0,1,.38-1.61c.66-1.95.24-2.65-1.85-2.74-1.74-.08-3.49.07-5.23-.07s-2.33.63-2.31,2.39c.06,10.22,0,20.44,0,30.66v1.91c-1-3.85-1-3.85-5.1-3.51-.68.06-1.36.17-2,.22L197,40.61V33.38c3.49,0,6.85,0,10.21,0,1.1,0,1.8-.3,1.79-1.56q0-9.43,0-18.88c0-1-.4-1.64-1.53-1.63q-9.16,0-18.32,0c-1.14,0-1.56.54-1.54,1.6,0,1.31.11,2.63,0,3.93-.17,1.79.46,2.44,2.31,2.37,3.21-.14,6.43,0,9.65,0v6.36c-3.37,0-6.61.08-9.84,0-1.68-.06-2.16.6-2.14,2.18q.09,9.43,0,18.88c0,1.6.54,2.16,2.18,2.17a119.71,119.71,0,0,0,24.52-1.91c0,2.58.08,5.07,0,7.54-.08,1.67.39,2.44,2.18,2.29a31.65,31.65,0,0,1,4.67,0c1.64.1,2.18-.55,2.16-2.18-.07-5.29,0-10.59,0-15.89v-1.8ZM160.63,44.6a81.89,81.89,0,0,1,.67-8.22c.28-1.66-.13-2.23-1.66-2.27-1.93,0-3.86,0-5.78-.16-1.75-.11-2.31.65-2.26,2.32.09,2.72,0,5.45,0,8.33-5.37,0-10.52,0-15.68,0-6.38,0-5.29-.91-5.41,5.43,0,2.31.1,2.41,2.44,2.41h43.71c5.18,0,5.18,0,5.25-5.21,0-2.51-.09-2.65-2.58-2.65ZM145.16,25.9c.2-4.81.37-9.34.61-13.86.06-1.19-.4-1.79-1.55-1.83-1.93-.06-3.86,0-5.79-.14-1.74-.12-2.41.42-2.38,2.3q.16,9.52,0,19.06c0,1.76.44,2.38,2.3,2.37,9.21-.09,18.42,0,27.64,0,3.11,0,6.23,0,9.34,0,1.34,0,2-.41,1.9-1.82a30.32,30.32,0,0,1,0-3.93c.14-1.64-.52-2.16-2.15-2.15-7.41.07-14.82,0-22.24,0Zm131-17.56V57.93h7.75V36.64h6.6c0-2,0-3.77,0-5.56,0-1-.39-1.32-1.34-1.3-1.72,0-3.44,0-5.34,0,0-3.07-.1-5.93,0-8.77.17-3.82-.69-7.71.64-11.48.09-.26-.6-1.13-1-1.14C281.1,8.29,278.68,8.34,276.12,8.34Zm32.8,10.46c0-2.76-.13-5.31,0-7.84.13-1.83-.06-2.43-1.9-2.54a45.22,45.22,0,0,0-6.16,0,2.06,2.06,0,0,0-1.33,1.51c-.1,5-.05,10.09-.07,15.14,0,1.09.37,1.58,1.52,1.58q19.07,0,38.12,0c1.08,0,1.66-.39,1.65-1.51,0-1.62,0-3.23,0-4.85,0-1.11-.58-1.53-1.66-1.51-2.24,0-4.48,0-6.73,0Zm-.32,30.66c.2-2.41.32-4.56.57-6.7.17-1.39-.29-2.19-1.72-2.27-2.11-.11-4.23-.19-6.34-.26-1.2,0-1.62.59-1.61,1.74,0,4.55,0,9.1,0,13.64,0,1.32.5,1.73,1.77,1.72q18.87,0,37.74,0c1.27,0,1.84-.46,1.81-1.74s-.06-2.74,0-4.11c.09-1.55-.58-2-2.11-2-8,.05-16.06,0-24.1,0ZM257.06,51c.81,0,1.62,0,2.43-.12a11.84,11.84,0,0,0,10.64-8.77A11.51,11.51,0,0,0,265,29.36c-3-1.92-6.45-2.14-9.9-1.93-8.12.5-13.35,8-10.87,15.59C245.9,48.06,250.65,51,257.06,51ZM319.7,30.39c-6.79,0-13.58,0-20.36,0-6.31.05-5.31-1-5.39,5.43,0,2.38,0,2.41,2.44,2.41q22,0,44.09,0c5.44,0,4.76.81,4.8-4.68a7.35,7.35,0,0,1,0-.94c.22-1.72-.52-2.27-2.24-2.25C335.27,30.43,327.48,30.39,319.7,30.39ZM273.5,19.28H241.35v6.15H273.5Zm-7.68-9.41h-17V16h17V9.87ZM182,36l-3.06,2.91,3.06.24Z"/><path class="cls-4" d="M262.58,39.28c0,3.55-2.24,5.78-5.65,5.73s-5.41-2.4-5.36-6c0-3.45,2.19-5.63,5.54-5.63S262.62,35.73,262.58,39.28Z"/><path class="cls-5" d="M110.63,97.16c3.16,7.56,6.28,14.89,9.3,22.25,2.17,5.29,4.35,10.58,6.28,16a33.72,33.72,0,0,1,1.26,16.2c-1.93,13.51-8.64,24-20.5,30.79-13.23,7.56-26.94,7.83-40.43.74C55.35,177.21,48.1,168,45.42,155.46A41.63,41.63,0,0,1,69.3,108.55c3-1.32,4.72-.67,6,2.29q3.57,8.43,7.07,16.89c1.23,3,.65,4.49-2.21,5.9-5.09,2.51-8,6.74-8.19,12.25a13.73,13.73,0,0,0,8.43,13.55,14,14,0,0,0,16.84-4.05c3.72-4.77,4-10,1.72-15.46Q83.6,103.23,68.23,66.55c-1.3-3.1-.63-4.82,2.39-6.08Q78.93,57,87.26,53.55c3.26-1.35,4.5-.82,6.11,2.27,4.82,9.28,12.43,14.19,23,14a31.67,31.67,0,0,0,8-1.64c2.87-.82,4.37-.31,5.52,2.39q3.66,8.68,7.29,17.36c1.14,2.75.39,4.53-2.43,5.62a50.19,50.19,0,0,1-23,3.55A8.68,8.68,0,0,0,110.63,97.16ZM69.78,116.81a3,3,0,0,0-.62.14c-.38.2-.76.42-1.12.65a33.88,33.88,0,0,0-14.42,18.57,31.13,31.13,0,0,0-1.13,16.73c2.14,9.49,6.94,17.31,15.54,22.51a33.63,33.63,0,0,0,25.39,4.39,34.22,34.22,0,0,0,24.15-47c-5.41-12.71-10.66-25.49-16-38.23-.67-1.59-.94-3.11.2-4.57s2.92-1.55,4.62-1.17a42.16,42.16,0,0,0,17,.24c1.85-.35,3.67-.88,5.57-1.34-1.5-3.61-2.92-6.86-4.2-10.17-.47-1.21-1.1-1.27-2.27-1.11a45,45,0,0,1-8.86.73C103.33,76.52,95,72,89.21,63.29c-.44-.65-.92-1.28-1.4-1.95L76.1,66.26c1.53,3.66,3,7.14,4.43,10.62Q93.25,107.29,106,137.7c3.46,8.33,2.33,16.11-3.52,23a21.64,21.64,0,0,1-32.48.23,20.78,20.78,0,0,1-5.29-17.42,21.7,21.7,0,0,1,8.79-14.61,1.85,1.85,0,0,0,.67-1.55C72.76,123.81,71.25,120.32,69.78,116.81Z"/><path class="cls-5" d="M65,50.93l1.87,5c-1.88.86-3.62,1.66-5.37,2.44L17,78.17C7.08,82.57,3.46,92.09,7.85,102q21.32,48.12,42.6,96.28c4.48,10.14,13.89,13.82,24,9.33q43.18-19.11,86.36-38.26l2.13-.92c.19.28.39.51.53.77,1.77,3.12,1.62,3.57-1.65,5L73.31,213.54c-10.58,4.7-21,.69-25.72-9.9Q24.74,152,2,100.33c-4.73-10.71-.71-21.07,10-25.84L62.78,51.86C63.45,51.56,64.14,51.28,65,50.93Z"/><path class="cls-5" d="M164.85,106.38c-6.23-14-12.39-27.88-18.59-41.85.41-.19.78-.38,1.16-.54,3.79-1.58,3.8-1.59,5.52,2.28,5.12,11.54,10.18,23.1,15.4,34.6.84,1.85.49,2.84-1.09,3.78C166.47,105.12,165.77,105.71,164.85,106.38Z"/><path class="cls-6" d="M433.22,55.6c-.05-.78.42-1.4,1.4-1.86a7.47,7.47,0,0,1,3.16-.68,6.3,6.3,0,0,1,2.67.55,2.25,2.25,0,0,1,1.37,1.73q.92,6.19,1.21,12.16t.29,12.16A3.16,3.16,0,0,1,442,82.17,12.26,12.26,0,0,1,438.4,84a25.47,25.47,0,0,1-4.95,1.11,42.83,42.83,0,0,1-5.51.36,38.43,38.43,0,0,1-5.32-.36,25.75,25.75,0,0,1-4.59-1,9.74,9.74,0,0,1-3.26-1.76,3.3,3.3,0,0,1-1.24-2.58V77.05q0-5.53.26-10.89t1-10.88A2,2,0,0,1,416,53.61a6.58,6.58,0,0,1,2.57-.49,10.14,10.14,0,0,1,3.53.69,3.63,3.63,0,0,1,1.17.75,1.33,1.33,0,0,1,.46.91L423.5,63h6.43c1.19,0,2.42,0,3.68.06-.09-1.21-.16-2.43-.23-3.65S433.26,56.91,433.22,55.6Zm-9.91,19.62c0,.74.56,1.3,1.69,1.67a11.68,11.68,0,0,0,3.65.55,14.23,14.23,0,0,0,2-.13,8,8,0,0,0,1.73-.42,4.06,4.06,0,0,0,1.24-.75,1.43,1.43,0,0,0,.48-1V72.84c0-.76,0-1.51-.06-2.24h-5.35c-1.73,0-3.52,0-5.34.06ZM442,88.39a15.72,15.72,0,0,1,6,1.11,14.48,14.48,0,0,1,4.66,3,12.86,12.86,0,0,1,3,4.4,13.59,13.59,0,0,1,1,5.31,10.56,10.56,0,0,1-3.52,8.41q-3.51,3.06-11.14,3.06t-11-2.93a10,10,0,0,1-3.48-8.08,15.27,15.27,0,0,1,1-5.61,13.08,13.08,0,0,1,2.9-4.53,13.68,13.68,0,0,1,4.56-3A15.32,15.32,0,0,1,442,88.39Zm.26,7.82a5.73,5.73,0,0,0-2.6.53,5,5,0,0,0-1.73,1.36,5.3,5.3,0,0,0-1,1.9,7.2,7.2,0,0,0-.29,2,3.2,3.2,0,0,0,1.59,3,7.39,7.39,0,0,0,3.82,1,9.42,9.42,0,0,0,2.18-.26,7,7,0,0,0,1.89-.75,4,4,0,0,0,1.31-1.24,3.26,3.26,0,0,0,.48-1.79,5.78,5.78,0,0,0-1.46-4.08A5.45,5.45,0,0,0,442.21,96.21Zm5.54-11.73c.18-1.82.31-3.77.39-5.83s.14-4.21.14-6.42q0-4.11-.17-8.32t-.36-8.31a1.64,1.64,0,0,1,.33-1.17,3.33,3.33,0,0,1,1-.88,5.18,5.18,0,0,1,1.47-.56,7.49,7.49,0,0,1,1.69-.19,5.81,5.81,0,0,1,2.64.59,2.56,2.56,0,0,1,1.47,1.89q.45,2.53.78,5.24c.22,1.81.41,3.62.59,5.45h2.64c.89,0,1.75,0,2.57.06a2,2,0,0,1,1.76,1.27,6.16,6.16,0,0,1,.59,2.71,7,7,0,0,1-.2,1.69,5.65,5.65,0,0,1-.58,1.54,3.48,3.48,0,0,1-1,1.1,2.24,2.24,0,0,1-1.37.43h-2c-.65,0-1.3,0-2,.06.05.65.07,1.3.07,1.93v1.85q0,3.47-.2,6.39c0,.83-.58,1.45-1.63,1.86a9.33,9.33,0,0,1-3.45.62,8.83,8.83,0,0,1-3.72-.75A2.19,2.19,0,0,1,447.75,84.48Z"/><path class="cls-6" d="M468.81,80.24q3.78.2,7.69.36t7.89.29c0-.86.09-1.74.13-2.64s.11-1.9.2-3c.08-.56.61-1,1.59-1.3a11.22,11.22,0,0,1,3.29-.46,11,11,0,0,1,3.23.46c1,.3,1.49.78,1.53,1.43.09,1,.18,2,.26,2.9s.18,1.89.26,2.84h3.79c3.78,0,7.43-.06,10.95-.2a1.8,1.8,0,0,1,1.76,1,4.39,4.39,0,0,1,.58,2.25,4.32,4.32,0,0,1-.62,2.28,2.33,2.33,0,0,1-1.92,1.17q-7.62.72-15.84,1.14t-16.36.43q-2.09,0-4.17,0l-4.11-.1a1.87,1.87,0,0,1-1.79-1.37,8.06,8.06,0,0,1-.56-3.06,7.92,7.92,0,0,1,.56-3C467.52,80.62,468.07,80.2,468.81,80.24Zm6.65-3.06a2.25,2.25,0,0,1-1.73,0,9.68,9.68,0,0,1-2.15-1.05,13.28,13.28,0,0,1-2.05-1.59,9,9,0,0,1-1.54-1.8,2.86,2.86,0,0,1-.52-1.63c0-.5.36-.85,1-1.07a38,38,0,0,0,12.29-6.39,12.5,12.5,0,0,0,4.79-9.32,1.54,1.54,0,0,1,.49-1.08,4.54,4.54,0,0,1,1.27-.85,7.41,7.41,0,0,1,1.76-.52,13,13,0,0,1,2-.16,7.94,7.94,0,0,1,3.13.59A1.9,1.9,0,0,1,495.54,54a18.34,18.34,0,0,1-2,8.28,75.7,75.7,0,0,1,9.09,3.55,50.07,50.07,0,0,1,7.34,4.2,2.06,2.06,0,0,1,.91,1.76,4,4,0,0,1-.78,2.25,8,8,0,0,1-1.89,2,6,6,0,0,1-2.32,1.07,2.17,2.17,0,0,1-2-.39,50.29,50.29,0,0,0-6.69-4.66,55.73,55.73,0,0,0-8-3.81A41.09,41.09,0,0,1,475.46,77.18ZM489.54,91a16.73,16.73,0,0,1,6,1,15,15,0,0,1,4.66,2.8,12.4,12.4,0,0,1,3,4.08,11.76,11.76,0,0,1,1,4.86,9.12,9.12,0,0,1-3.45,7.85q-3.58,2.84-11.22,2.84c-5,0-8.66-.91-11-2.71a9,9,0,0,1-3.49-7.53,13.28,13.28,0,0,1,1-5.15,12.36,12.36,0,0,1,2.9-4.2A13.82,13.82,0,0,1,483.61,92,16.3,16.3,0,0,1,489.54,91Zm.26,8c-2,0-3.49.49-4.33,1.47a4.67,4.67,0,0,0-1.28,3.1,2.41,2.41,0,0,0,1.6,2.24,8.9,8.9,0,0,0,3.81.75,12.3,12.3,0,0,0,2.19-.19,7.49,7.49,0,0,0,1.89-.59,3.66,3.66,0,0,0,1.3-1,2,2,0,0,0,.49-1.36,4,4,0,0,0-1.47-3.17A6.24,6.24,0,0,0,489.8,99Z"/><path class="cls-6" d="M424.68,154.3a2.28,2.28,0,0,0,1.17,1.89,4.91,4.91,0,0,0,2.15.65q3.33.19,6.39.2,4.11,0,8-.33c2.61-.22,5.45-.52,8.54-.91a1.14,1.14,0,0,1,.94.29,2.71,2.71,0,0,1,.72.95,5.47,5.47,0,0,1,.46,1.33,7.1,7.1,0,0,1,.16,1.53,4.54,4.54,0,0,1-.36,1.86,1.64,1.64,0,0,1-1.14,1q-3.39.72-6.49,1.27c-2.06.37-4.09.67-6.09.88l.13,8.61q7.75,0,14.93-.39a1.75,1.75,0,0,1,1.76,1,4.88,4.88,0,0,1,.59,2.38,5.37,5.37,0,0,1-.63,2.51A2.63,2.63,0,0,1,454,180.5q-2.86.52-6.26.92c-2.26.26-4.59.47-7,.65s-4.87.3-7.37.39-4.92.13-7.27.13-4.65-.05-6.78-.13-4.06-.22-5.8-.39c-.83-.09-1.42-.65-1.79-1.7a10,10,0,0,1-.56-3.39,8.69,8.69,0,0,1,.56-3.22c.37-.94.92-1.36,1.66-1.28q3.72.33,7.53.56t7.79.36q0-2,0-4.08c0-1.37,0-2.68,0-3.94-1.52,0-3.06-.14-4.62-.29s-3.18-.34-4.83-.56a6,6,0,0,1-3.26-1.43,5.19,5.19,0,0,1-1.37-3.46c-.08-1.21-.15-2.41-.19-3.58s-.07-2.33-.07-3.46c0-2.6.11-5.17.33-7.69s.52-5.13.91-7.82a4.87,4.87,0,0,1,1.53-3.1,4.57,4.57,0,0,1,3-1.2q3.52-.14,6.84-.23t6.65-.1q4.11,0,8.09.16c2.65.11,5.41.29,8.28.56a2.17,2.17,0,0,1,1.76,1.3,5.61,5.61,0,0,1,.58,2.54,5.94,5.94,0,0,1-.62,2.74,1.84,1.84,0,0,1-1.86,1.17l-3.91-.09c-1.26,0-2.52,0-3.78,0-2.6,0-5.14.06-7.59.17s-5,.31-7.6.62a2.24,2.24,0,0,0-1.43.62,2.91,2.91,0,0,0-.59,1.66c-.08,1-.16,2.13-.23,3.26s-.09,2.26-.09,3.39q0,1,0,1.92C424.6,153.07,424.63,153.69,424.68,154.3Z"/><path class="cls-6" d="M462.29,165.31q5.94.52,12.22.79t12.68.26q8.28,0,15.91-.39a1.75,1.75,0,0,1,1.76,1,4.88,4.88,0,0,1,.59,2.38,5.48,5.48,0,0,1-.62,2.51,2.67,2.67,0,0,1-1.93,1.46q-3.19.58-7,1c-2.52.29-5.15.51-7.89.69l.52,13.88a1.24,1.24,0,0,1-.49,1,4,4,0,0,1-1.33.71,9.37,9.37,0,0,1-1.89.43,19,19,0,0,1-2.15.13,11.5,11.5,0,0,1-3.72-.56c-1.09-.36-1.63-.92-1.63-1.66,0-1.82.09-3.95.13-6.39s.07-4.8.07-7.1h-2.16c-2.47,0-4.81,0-7-.13s-4.19-.22-6-.39a2.19,2.19,0,0,1-1.79-1.7,10,10,0,0,1-.55-3.39,8.78,8.78,0,0,1,.55-3.23C461,165.65,461.55,165.23,462.29,165.31Zm20.27-34.61a22.23,22.23,0,0,1,8.15,1.43A20.4,20.4,0,0,1,497,136a16.64,16.64,0,0,1,4.08,5.54,15.92,15.92,0,0,1,1.43,6.61,13,13,0,0,1-4.79,10.63q-4.79,3.92-15.16,3.91-10.1,0-14.89-3.71a12.32,12.32,0,0,1-4.79-10.3,17.55,17.55,0,0,1,1.4-7,17,17,0,0,1,4-5.7,18.7,18.7,0,0,1,6.19-3.85A22.4,22.4,0,0,1,482.56,130.7Zm.2,8.08a10.15,10.15,0,0,0-4.46.88,8.23,8.23,0,0,0-4.5,5.35,12.35,12.35,0,0,0-.49,3.42,5,5,0,0,0,.72,2.67,5.89,5.89,0,0,0,2,2,10.49,10.49,0,0,0,3,1.2,14.79,14.79,0,0,0,7.2,0,11.33,11.33,0,0,0,3.17-1.3,7.26,7.26,0,0,0,2.21-2.09,4.8,4.8,0,0,0,.85-2.8,10.11,10.11,0,0,0-.62-3.55,8.47,8.47,0,0,0-1.83-2.94,8.77,8.77,0,0,0-3-2A10.88,10.88,0,0,0,482.76,138.78Z"/><path class="cls-6" d="M541.17,167.86a4.15,4.15,0,0,1-1.5,2.83,11.19,11.19,0,0,1-3.52,2,22.43,22.43,0,0,1-4.86,1.21,38.72,38.72,0,0,1-10.75,0,20.22,20.22,0,0,1-4.57-1.14,9.44,9.44,0,0,1-3.22-2,4.15,4.15,0,0,1-1.31-2.9c0-.95-.06-1.88-.06-2.77v-2.7c0-3.13.07-6.25.23-9.36s.42-6.38.81-9.81a3.06,3.06,0,0,1,1.31-2.31,5.19,5.19,0,0,1,2.54-.88c1-.09,2.1-.16,3.32-.2s2.48-.06,3.78-.06q3.46,0,6.94.19a61.69,61.69,0,0,1,6.3.65,4.35,4.35,0,0,1,2.86,1.34,6.38,6.38,0,0,1,1.11,2.83c.13.87.24,1.93.33,3.17s.17,2.57.26,4,.15,2.92.19,4.46.07,3,.07,4.47,0,2.67-.07,3.84S541.26,167,541.17,167.86Zm-19.95-4.5c0,.87.62,1.5,1.73,1.89a10.82,10.82,0,0,0,3.62.59,15.22,15.22,0,0,0,1.92-.13,7,7,0,0,0,1.73-.46,3.58,3.58,0,0,0,1.24-.82,1.69,1.69,0,0,0,.45-1.2v-3.78c0-1.7,0-3.39-.06-5.09s-.16-3.36-.33-5a1.34,1.34,0,0,0-.75-1.11,4.46,4.46,0,0,0-1.34-.32c-.39,0-.79-.08-1.2-.1s-.86,0-1.34,0c-.69,0-1.37,0-2,.06s-1.28.11-1.89.2a1.84,1.84,0,0,0-1.17.46,1.64,1.64,0,0,0-.33.91c-.13,1.48-.22,3-.26,4.46s-.06,3-.06,4.47v2.54C521.16,161.71,521.18,162.53,521.22,163.36Zm25.69,16.23q.51-4.43.71-10.1c.13-3.78.2-7.7.2-11.74q0-4.75-.1-9.42c-.07-3.1-.14-6.05-.23-8.83a2.16,2.16,0,0,1,1.4-2.05,6.86,6.86,0,0,1,3.17-.75,5.74,5.74,0,0,1,2.6.58,2.59,2.59,0,0,1,1.44,1.89q1,6.06,1.43,13.37t.46,14.4c0,2.39,0,4.7-.1,6.91s-.19,4.28-.36,6.2a2.07,2.07,0,0,1-1.56,1.69,9.49,9.49,0,0,1-3.26.52,14.48,14.48,0,0,1-2.19-.16,7.65,7.65,0,0,1-1.89-.52,4.13,4.13,0,0,1-1.3-.85A1.31,1.31,0,0,1,546.91,179.59Z"/></g></g></svg>