<?xml version="1.0" encoding="UTF-8"?>
<svg id="_레이어_2" data-name="레이어 2" xmlns="http://www.w3.org/2000/svg" viewBox="0 0 86.68 34.88">
  <defs>
    <style>
      .cls-1 {
        fill: #39b54a;
        stroke-width: 0px;
      }
    </style>
  </defs>
  <g id="_레이어_1-2" data-name="레이어 1">
    <g>
      <path class="cls-1" d="m.32,16.56c4.28-3.82,6.84-8.35,6.95-13.89.04-1.01,1.44-1.58,2.77-1.58,1.19,0,2.3.43,2.34,1.4.04.43.04.86.04,1.26,0,2.02-.29,3.85-.79,5.62,3.06,1.87,5.62,3.85,7.45,6.08,1.22,1.51-1.33,3.96-2.99,3.96-.4,0-.76-.14-.97-.47-1.4-1.94-3.2-3.71-5.26-5.36-1.19,2.2-2.77,4.21-4.57,6.19-1.19,1.26-6.66-1.73-4.97-3.2Zm16.45,12.85c.72.04,1.48.07,2.27.07,2.12,0,4.32-.18,6.34-.43.72-.07,1.26,1.12,1.26,2.2,0,.68-.22,1.3-.76,1.48-2.81.86-5.9,1.37-8.93,1.37-2.56,0-7.09-.25-7.45-3.06-.11-.94-.18-1.87-.18-2.84,0-1.91.22-3.85.5-5.69.14-.94,1.15-1.3,2.27-1.3,1.48,0,3.1.65,3.02,1.44-.11,1.26-.14,2.48-.14,3.71,0,.61,0,1.22.04,1.84.07.83.94,1.15,1.76,1.22ZM24.19.97c1.04,0,2.09.4,2.23,1.37.72,4.75,1.04,9.68,1.04,14.51,0,1.58-.04,3.1-.11,4.64-.04.9-1.37,1.37-2.74,1.37-1.48,0-2.99-.54-2.92-1.66.18-3.06.25-6.23.25-9.47,0-3.06-.07-6.16-.25-9.21-.07-.97,1.22-1.55,2.48-1.55Z"/>
      <path class="cls-1" d="m31.93,6.12c0-1.15.36-2.27,1.12-2.3h4.93c.04-.94.07-2.02.07-2.88,0-.61,1.12-.94,2.27-.94s2.45.36,2.59,1.12c.14.9.25,1.91.32,2.84,1.69.04,3.42.14,5.04.22.83.04,1.22,1.04,1.22,2.02s-.4,1.94-1.12,1.91c-1.73-.07-3.53-.11-5.4-.11-.18,1.4-.5,2.7-.97,3.92,3.17,1.44,5.76,3.1,7.59,5.08,1.33,1.4-1.22,3.71-2.92,3.71-.4,0-.72-.11-.97-.4-1.48-1.69-3.42-3.2-5.69-4.64-1.12,1.58-2.48,3.06-4.1,4.39-1.26,1.04-6.52-1.76-4.75-3.1,3.46-2.56,5.76-5.44,6.73-8.85-1.69.04-3.35.14-4.93.22-.68.07-1.04-1.04-1.04-2.2Zm24.94,22.28c0,3.82-2.52,6.19-8.1,6.19s-7.99-2.27-7.99-5.94c0-4.32,3.13-7.74,7.96-7.74s8.14,3.46,8.14,7.49Zm-11.09-.11c0,1.26,1.37,1.94,2.99,1.94s3.24-.72,3.24-2.02c0-1.62-1.12-2.92-3.13-2.92-2.27,0-3.1,1.58-3.1,2.99Zm6.77-14.22c-1.44-.04-2.84-.04-4.21-.04-.97.04-1.44-1.19-1.44-2.34,0-.97.36-1.87,1.01-1.91,1.26-.04,2.88-.11,4.64-.07-.04-2.41-.14-4.86-.25-7.2-.07-.97,1.22-1.55,2.48-1.55,1.04,0,2.09.4,2.27,1.37.72,3.96,1.04,8.75,1.04,12.89,0,1.37-.04,2.63-.11,3.78-.04.9-1.44,1.37-2.81,1.37-1.51,0-2.99-.54-2.88-1.66.14-1.37.22-2.95.25-4.64Z"/>
      <path class="cls-1" d="m69.15,16.2c.04-1.84.07-3.6.22-5.65.07-.83,1.37-1.26,2.7-1.26s2.59.43,2.63,1.33c.11,1.8.22,3.85.4,5.76h2.63c2.63,0,5.22-.04,7.67-.11.86-.04,1.3.86,1.3,1.76s-.43,1.84-1.4,1.91c-5.58.54-11.84.86-17.78.86-1.55,0-3.1-.04-4.57-.07-.9,0-1.3-1.22-1.3-2.45s.4-2.41,1.22-2.38c2.05.11,4.18.22,6.3.29Zm-5.18-12.99c0-.94.4-1.84,1.22-1.87,2.48-.11,6.01-.14,9.36-.14,2.41,0,4.71,0,6.48.07,2.48.07,2.74,1.33,2.88,3.13.25,2.7.36,5.29.36,7.92v1.12c0,.76-1.55,1.19-3.06,1.19s-2.81-.4-2.81-1.3c0-.76.04-1.55.04-2.3,0-1.51-.04-3.02-.14-4.57-.04-.76-.32-1.08-1.19-1.08-2.34-.07-4.57-.11-6.84-.11-1.58,0-3.2,0-4.86.04-.94.04-1.44-1.04-1.44-2.09Zm3.6,23.72c-.86,0-1.33-1.12-1.33-2.2,0-.97.36-1.91,1.12-1.94,2.52-.14,5-.18,7.52-.18,1.66,0,3.35,0,5,.07,2.23.07,2.27,1.84,2.27,4.25,0,2.23-.04,4.68-.29,6.84-.07.72-1.3,1.12-2.56,1.12-1.55,0-3.13-.58-2.92-1.69.29-1.55.5-3.78.5-4.97,0-.83.04-1.19-.76-1.22-1.4-.07-2.81-.07-4.25-.07h-4.32Z"/>
    </g>
  </g>
</svg>